<svg fill="none" height="40" viewBox="0 0 70 40" width="70" xmlns="http://www.w3.org/2000/svg">
    <path id="logo-bg" d="m67.667 9.00043c-.9404-2.9094-2.4654-5.16376-4.541-6.72055-2.0249-1.514247-4.4903-2.27988-7.3284-2.27988h-42.5811c-2.8381 0-5.30352.765631-7.32836 2.28839-2.07567 1.55678-3.60913 3.81965-4.54954 6.72905-.906522 2.84136-1.3386 6.32926-1.3386 10.98256v18.0009c0 .4678.0423587.8166.135552 1.0974.093194.2892.245695.5189.457498.672.203332.1531.44902.2297.7286.2297h54.47595c2.8381 0 5.3035-.7656 7.3284-2.2884 2.0756-1.5568 3.6091-3.8196 4.5495-6.729.9065-2.8414 1.3386-6.3293 1.3386-10.9826-.0085-4.6533-.4321-8.1497-1.3471-10.99957z" fill="#fff"></path>
    <g id="logo-text" fill="#341cff">
        <path d="m6.92166 28.7963c-.7286-2.2714-.99124-5.2744-.99124-8.7963s.26264-6.5249.99124-8.7962c.99124-3.07959 2.88053-4.65338 6.29484-4.65338 4.7698 0 6.5913 3.14759 6.5913 10.08078v.0341h-4.8037v-.0766c0-3.8111-.4999-5.2063-1.9232-5.2063-.9235 0-1.4911.5104-1.8554 1.6163-.4321 1.3186-.4998 3.8112-.4998 7.0013 0 3.3688.1016 5.8273.5337 7.1799.3304.9528.7964 1.4292 1.5589 1.4292 1.3216 0 1.8893-1.4292 1.8893-5.2743h4.8037c0 7.2224-1.8893 10.1148-6.5914 10.1148-3.11771 0-4.99852-1.5738-5.99824-4.6533z"></path>
        <path d="m32.982 33.1348v-4.8319h-5.7949v-21.43773h-4.6682v26.26963z"></path>
        <path d="m40.141 17.584v-5.8868h6.0915v-4.83203h-10.7597v26.26963h10.7597v-4.8319h-6.0915v-5.8869h5.7611v-4.832z"></path>
        <path clip-rule="evenodd" d="m48.5453 20c0 3.5219.2627 6.5249.9913 8.7963.9912 3.0795 2.8805 4.6533 6.2609 4.6533s5.3036-1.5738 6.2948-4.6533c.7286-2.2714.9913-5.2744.9913-8.7963s-.2627-6.5249-.9913-8.7962c-.9997-3.07959-2.9144-4.65338-6.2948-4.65338s-5.2697 1.57379-6.2609 4.65338c-.7286 2.2713-.9913 5.2743-.9913 8.7962zm9.7007 0c0 2.6032-.0593 5.3169-.5592 6.8567-.3643 1.1314-.9658 1.7524-1.8893 1.7609-.898 0-1.4911-.621-1.8554-1.7609-.4914-1.5398-.593-4.2535-.593-6.8567 0-2.6031.0932-5.3169.593-6.8566.3643-1.14.9574-1.761 1.8554-1.761.932 0 1.525.621 1.8893 1.761.4914 1.5397.5592 4.2535.5592 6.8566z" fill-rule="evenodd"></path>
    </g>
</svg>